<svg width="1235" height="1126" xmlns="http://www.w3.org/2000/svg" xmlns:xlink="http://www.w3.org/1999/xlink" xml:space="preserve" overflow="hidden"><g transform="translate(-1052 -495)"><g><g><g><path d="M968.531 585.324 950.856 577.452 910.875 355.675C908.186 292.868 676.531 270.009 520.5 270.009 364.469 270.009 132.803 292.857 130.125 355.675L90.5995 577.159 71.8941 585.563C38.5821 602.772 21.6875 622.236 21.6875 643.447 21.6875 725.588 278.684 769.906 520.5 769.906 762.316 769.906 1019.31 725.588 1019.31 643.447 1019.31 622.236 1002.42 602.772 968.531 585.324ZM882.606 346.393C882.653 346.418 882.673 346.476 882.648 346.524 882.638 346.542 882.624 346.557 882.606 346.566 848.068 366.519 725.447 400.134 520.5 400.134 315.553 400.134 192.932 366.519 158.416 346.566 158.369 346.541 158.349 346.483 158.374 346.435 158.384 346.417 158.398 346.403 158.416 346.393 188.876 321.235 323.469 291.697 520.5 291.697 717.531 291.697 852.124 321.235 882.606 346.393ZM520.5 748.219C239.322 748.219 43.375 693.003 43.375 643.447 43.375 631.367 57.0381 617.66 81.3281 605.081L85.9801 602.978 81.5342 627.918C80.3755 633.721 83.9343 639.422 89.6561 640.931 95.4896 642.286 101.317 638.656 102.672 632.822 102.716 632.634 102.754 632.446 102.788 632.256L150.251 366.519C198.083 392.316 326.928 421.822 520.5 421.822 714.3 421.822 843.221 392.262 890.912 366.378L938.874 633.134C939.75 639.058 945.262 643.152 951.187 642.275 957.111 641.4 961.204 635.887 960.328 629.964 960.295 629.732 960.252 629.503 960.203 629.274L955.508 603.249 959.162 604.865C983.962 617.66 997.625 631.367 997.625 643.447 997.625 693.003 801.679 748.219 520.5 748.219Z" transform="matrix(1.00096 0 0 1 1052 580)"/><path d="M704.844 540.648C704.782 520.936 693.812 502.878 676.347 493.738 668.85 489.82 660.493 487.837 652.035 487.969L651.937 487.969C625.713 488.05 603.511 507.34 599.768 533.296L441.232 533.296C437.489 507.34 415.288 488.05 389.063 487.969L388.965 487.969C380.518 487.842 372.173 489.825 364.686 493.738 338.758 507.223 328.672 539.174 342.157 565.103 343.941 568.534 346.097 571.757 348.583 574.719 337.697 587.622 333.62 604.944 337.609 621.347 338.725 626.187 340.584 630.826 343.118 635.097 357.657 660.353 389.918 669.04 415.173 654.502 429.275 646.383 438.842 632.212 441.102 616.099L599.887 616.099C603.972 644.946 630.669 665.021 659.517 660.937 670.882 659.327 681.413 654.054 689.511 645.919 708.794 626.529 710.057 595.616 692.417 574.719 700.427 565.171 704.826 553.111 704.844 540.648ZM674.156 630.651C662.094 642.845 642.43 642.95 630.236 630.887 624.343 625.057 621.025 617.113 621.022 608.823 621.022 608.02 621.022 607.218 621.13 606.459L622.442 594.433 418.569 594.433 419.881 606.459C419.968 607.218 419.968 608.02 419.989 608.627 420.096 625.779 406.279 639.77 389.127 639.877 380.765 639.928 372.736 636.606 366.855 630.662 354.77 618.499 354.831 598.842 366.995 586.757 367.002 586.749 367.01 586.741 367.018 586.734 368.187 585.555 369.445 584.467 370.78 583.481L382.372 574.806C382.42 574.781 382.44 574.722 382.415 574.674 382.405 574.656 382.391 574.642 382.372 574.632L370.78 565.957C369.441 564.97 368.18 563.884 367.007 562.704 354.879 550.549 354.902 530.865 367.056 518.738 372.872 512.934 380.749 509.669 388.965 509.656L389.02 509.656C406.194 509.711 420.084 523.658 420.065 540.832 420.065 541.635 420.065 542.48 419.957 543.305L419.057 554.983 621.943 554.983 621.043 543.272C620.978 542.448 620.935 541.602 620.935 540.778 620.94 523.622 634.825 509.704 651.981 509.656L652.035 509.656C669.205 509.648 683.131 523.559 683.14 540.729 683.145 549.011 679.844 556.951 673.972 562.791 672.803 563.969 671.545 565.057 670.209 566.044L658.617 574.719C658.569 574.744 658.55 574.802 658.575 574.85 658.584 574.869 658.599 574.883 658.617 574.892L670.209 583.567C672.195 585.025 674.013 586.698 675.631 588.556 679.331 592.79 681.789 597.966 682.734 603.509 684.428 613.404 681.219 623.506 674.124 630.608Z" transform="matrix(1.00096 0 0 1 1052 580)"/></g></g></g><rect x="1351.5" y="1039.5" width="456" height="245" stroke="#FFFFFF" stroke-width="4.58333" stroke-miterlimit="8" fill="#FFFFFF"/><text font-family="Calibri,Calibri_MSFontService,sans-serif" font-weight="400" font-size="248" transform="matrix(1 0 0 1 1315.15 1220)">Food</text><rect x="1470.5" y="1138.5" width="168" height="49.0001" stroke="#FFFFFF" stroke-width="4.58333" stroke-miterlimit="8" fill="#FFFFFF"/><path d="M1524.5 1126.5 1592.74 1126.5" stroke="#000000" stroke-width="20.625" stroke-miterlimit="8" fill="none" fill-rule="evenodd"/><path d="M1519.5 1199.5 1592.37 1199.5" stroke="#000000" stroke-width="20.625" stroke-miterlimit="8" fill="none" fill-rule="evenodd"/><text font-family="Calibri,Calibri_MSFontService,sans-serif" font-weight="400" font-size="275" transform="matrix(1 0 0 1 1269.55 835)">Fido’s</text><path d="M1383 964C1383 954.059 1398.45 946 1417.5 946 1436.55 946 1452 954.059 1452 964 1452 973.941 1436.55 982 1417.5 982 1398.45 982 1383 973.941 1383 964Z" fill-rule="evenodd"/><path d="M1435 970C1435 960.059 1450.45 952 1469.5 952 1488.55 952 1504 960.059 1504 970 1504 979.941 1488.55 988 1469.5 988 1450.45 988 1435 979.941 1435 970Z" fill-rule="evenodd"/><path d="M0 40.4999C-2.60356e-14 18.1324 91.5577-5.15618e-15 204.5-1.03124e-14 317.442-2.06247e-14 409 18.1324 409 40.4999 409 62.8674 317.442 80.9998 204.5 80.9998 91.5577 80.9998-1.30178e-13 62.8674 0 40.4999Z" fill-rule="evenodd" transform="matrix(1 0 0 -1 1357 998)"/><path d="M1338 952C1338 932.118 1353.45 916 1372.5 916 1391.55 916 1407 932.118 1407 952 1407 971.882 1391.55 988 1372.5 988 1353.45 988 1338 971.882 1338 952Z" fill-rule="evenodd"/><path d="M1746 952C1746 932.118 1761.45 916 1780.5 916 1799.55 916 1815 932.118 1815 952 1815 971.882 1799.55 988 1780.5 988 1761.45 988 1746 971.882 1746 952Z" fill-rule="evenodd"/><path d="M1435 926.5C1435 906.894 1450.45 891 1469.5 891 1488.55 891 1504 906.894 1504 926.5 1504 946.106 1488.55 962 1469.5 962 1450.45 962 1435 946.106 1435 926.5Z" fill-rule="evenodd"/><path d="M1395 947.5C1395 927.894 1410.45 912 1429.5 912 1448.55 912 1464 927.894 1464 947.5 1464 967.106 1448.55 983 1429.5 983 1410.45 983 1395 967.106 1395 947.5Z" fill-rule="evenodd"/><path d="M1482 935.5C1482 915.894 1497.45 900 1516.5 900 1535.55 900 1551 915.894 1551 935.5 1551 955.106 1535.55 971 1516.5 971 1497.45 971 1482 955.106 1482 935.5Z" fill-rule="evenodd"/><path d="M1527 923.5C1527 903.894 1542.45 888 1561.5 888 1580.55 888 1596 903.894 1596 923.5 1596 943.106 1580.55 959 1561.5 959 1542.45 959 1527 943.106 1527 923.5Z" fill-rule="evenodd"/><path d="M1568 916C1568 896.118 1583.45 880 1602.5 880 1621.55 880 1637 896.118 1637 916 1637 935.882 1621.55 952 1602.5 952 1583.45 952 1568 935.882 1568 916Z" fill-rule="evenodd"/><path d="M1621 926.5C1621 906.894 1636.45 891 1655.5 891 1674.55 891 1690 906.894 1690 926.5 1690 946.106 1674.55 962 1655.5 962 1636.45 962 1621 946.106 1621 926.5Z" fill-rule="evenodd"/><path d="M1657 943C1657 923.118 1672.22 907 1691 907 1709.78 907 1725 923.118 1725 943 1725 962.882 1709.78 979 1691 979 1672.22 979 1657 962.882 1657 943Z" fill-rule="evenodd"/><path d="M1698 928.5C1698 908.894 1713.45 893 1732.5 893 1751.55 893 1767 908.894 1767 928.5 1767 948.106 1751.55 964 1732.5 964 1713.45 964 1698 948.106 1698 928.5Z" fill-rule="evenodd"/></g></svg>