<svg width="1578" height="1090" xmlns="http://www.w3.org/2000/svg" xmlns:xlink="http://www.w3.org/1999/xlink" xml:space="preserve" overflow="hidden"><g transform="translate(-541 -834)"><text font-family="Aptos,Aptos_MSFontService,sans-serif" font-weight="700" font-size="330" transform="matrix(1 0 0 1 1027.93 1238)">Fido’s</text><text font-family="Aptos,Aptos_MSFontService,sans-serif" font-weight="700" font-size="330" transform="matrix(1 0 0 1 1174.55 1634)">Food</text><g><g><g><path d="M442.803 122.909C447.638 124.495 456.716 128.443 462.978 131.686 471.779 136.241 479.338 137.076 496.267 135.36 523.223 132.633 531.334 137.883 549.903 170.076 556.788 182.015 573.37 202.113 586.753 214.739 609.063 235.798 611.084 238.878 611.084 251.894 611.084 262.872 607.874 270.58 596.939 285.863 579.955 309.605 572.568 329.195 572.364 351.026L572.217 367.253 558.342 351.462C550.708 342.775 541.705 328.963 538.328 320.768 534.955 312.57 531.203 305.861 529.99 305.853 514.51 305.758 517.33 360.657 535.04 404.103 554.537 451.941 559.961 482.302 560.113 544.481 560.183 574.399 558.959 611.792 557.396 627.577L554.545 656.275 580.488 654.313C605.571 652.414 606.819 652.695 618.138 662.817 628.477 672.065 630.024 675.787 631.392 694.697 632.719 713.076 631.459 719.237 622.486 738.21 616.734 750.366 601.451 774.42 588.524 791.662 575.596 808.902 562.616 827.659 559.681 833.342L554.341 843.676 564.307 841.917C638.11 828.898 643.792 774.4 664.974 738.21 686.156 702.02 660.627 740.086 684.834 694.697 709.042 649.308 765.962 618.731 752.414 717.706 745.353 730.766 682.121 820.933 664.974 833.342 647.827 845.748 603.194 889.11 497.129 887.847 341.214 885.987 302.607 878.691 295.52 874.704 290.699 871.991 284.483 868.717 281.706 867.432 272.965 863.385 273.62 857.287 283.816 847.828 292.74 839.553 295.453 838.897 312.132 840.981 322.279 842.252 330.575 841.992 330.565 840.406 330.554 838.819 324.303 829.624 316.669 819.973 287.957 783.676 271.93 759.763 264.68 742.404 250.419 708.267 250.345 680.806 264.47 663.802 270.959 655.991 274.31 655.061 295.034 655.309 307.838 655.464 321.466 656.253 325.324 657.064 329.32 657.903 332.013 656.818 331.589 654.54 331.178 652.344 328.928 626.095 326.586 596.208 320.026 512.44 326.736 466.085 356.644 388.626 367.027 361.738 367.461 343.421 357.756 341.583 352.412 340.568 351.621 343.419 351.621 363.6 351.621 376.759 349.243 392.423 346.126 399.828L340.631 412.876 331.989 394.785C323.149 376.272 313.234 367.029 284.38 350.395 264.014 338.648 253.445 325.566 253.445 312.096 253.445 306.407 258.47 290.432 264.613 276.598 273.316 256.994 276.219 244.724 277.762 221.011 280.152 184.261 286.688 174.645 311.586 171.23 324.555 169.451 330.456 165.847 345.585 150.461 358.216 137.613 368.784 130.398 379.67 127.186 399.621 121.298 431.353 119.15 442.803 122.909Z" fill="#080809" fill-rule="evenodd" transform="matrix(1 0 0 1.00002 339.351 825.877)"/></g></g></g></g></svg>